<svg width="27" height="27" viewBox="0 0 27 27" fill="none" xmlns="http://www.w3.org/2000/svg">
<path opacity="0.5" fill-rule="evenodd" clip-rule="evenodd" d="M27 15.525V11.475H23.415C23.16 10.185 22.65 8.985 21.945 7.92L24.465 5.4L21.6 2.535L19.08 5.055C18.015 4.35 16.815 3.84 15.525 3.57V0H11.475V3.57C10.17 3.84 8.97 4.35 7.905 5.055L5.385 2.535L2.52 5.4L5.04 7.92C4.335 8.985 3.825 10.185 3.57 11.475H0V15.525H3.57C3.84 16.815 4.35 18.015 5.055 19.08L2.52 21.615L5.385 24.48L7.92 21.945C8.985 22.65 10.185 23.16 11.475 23.415V27H15.525V23.415C16.815 23.16 18 22.65 19.065 21.945L21.6 24.48L24.465 21.615L21.93 19.08C22.635 18.015 23.145 16.815 23.415 15.525H27ZM13.5 19.575C10.14 19.575 7.425 16.845 7.425 13.5C7.425 10.14 10.14 7.425 13.5 7.425C16.845 7.425 19.575 10.14 19.575 13.5C19.575 16.845 16.845 19.575 13.5 19.575Z" fill="white"/>
</svg>
